<?xml version="1.0" standalone="no"?>
<!DOCTYPE svg PUBLIC "-//W3C//DTD SVG 20010904//EN"
 "http://www.w3.org/TR/2001/REC-SVG-20010904/DTD/svg10.dtd">
<svg version="1.0" xmlns="http://www.w3.org/2000/svg"
 width="260.000000pt" height="260.000000pt" viewBox="0 0 260.000000 260.000000"
 preserveAspectRatio="xMidYMid meet">
<metadata>
Created by potrace 1.14, written by Peter Selinger 2001-2017
</metadata>
<g transform="translate(0.000000,260.000000) scale(0.100000,-0.100000)"
fill="#000000" stroke="none">
<path d="M0 1300 l0 -1300 1300 0 1300 0 0 1300 0 1300 -1300 0 -1300 0 0
-1300z m940 593 c76 -23 158 -105 189 -188 35 -93 44 -172 44 -410 0 -332 -22
-426 -122 -525 -90 -89 -116 -95 -456 -95 l-280 0 -2 610 c-2 336 -1 615 1
620 2 6 105 9 287 7 231 -2 294 -6 339 -19z m810 -210 c0 -128 3 -233 8 -233
4 0 59 105 123 233 l116 232 169 -1 c93 -1 168 -5 167 -9 -1 -6 -267 -470
-293 -511 -11 -17 10 -63 162 -367 96 -191 172 -349 170 -352 -3 -3 -83 -5
-178 -5 -169 0 -174 1 -187 23 -8 12 -52 109 -98 215 -46 105 -86 192 -89 192
-3 0 -18 -21 -35 -47 -30 -47 -30 -51 -35 -213 l-5 -165 -155 0 -155 0 -3 610
c-1 336 0 615 2 620 2 6 65 10 160 10 l156 0 0 -232z"/>
<path d="M640 1295 l0 -385 59 0 c78 0 88 5 114 54 21 39 22 55 25 298 5 378
-8 418 -133 418 l-65 0 0 -385z"/>
</g>
</svg>
